<svg xmlns="http://www.w3.org/2000/svg" version="1.1" xmlns:xlink="http://www.w3.org/1999/xlink" xmlns:svgjs="http://svgjs.com/svgjs" width="512" height="512" x="0" y="0" viewBox="0 0 64 64" style="enable-background:new 0 0 512 512" xml:space="preserve"><g><g xmlns="http://www.w3.org/2000/svg" fill-rule="evenodd"><path d="m48 64h-32a16.0007 16.0007 0 0 1 -16-16v-32a16.0007 16.0007 0 0 1 16-16h32a16 16 0 0 1 16 16v32a16 16 0 0 1 -16 16" fill="#FF3A55" data-original="#ff3a55"></path><path d="m30 18h18a9.0006 9.0006 0 0 0 .92-17.954c-.306-.017-.609-.046-.92-.046h-32a16.0007 16.0007 0 0 0 -16 16v32a30.0007 30.0007 0 0 1 30-30" fill="#FF796C" data-original="#ff796c"></path><path d="m48 32a16 16 0 1 0 16 16v-32a16 16 0 0 1 -16 16" fill="#E00047" data-original="#e00047"></path></g><circle xmlns="http://www.w3.org/2000/svg" cx="44.5" cy="19.5" fill="#FFFFFF" r="2.5" data-original="#ffffff"></circle><path xmlns="http://www.w3.org/2000/svg" d="m32 24a8 8 0 1 1 -8 8 8.0042 8.0042 0 0 1 8-8zm0-4a12 12 0 1 1 -12 12 12.0057 12.0057 0 0 1 12-12z" fill="#FFFFFF" fill-rule="evenodd" data-original="#ffffff"></path><path xmlns="http://www.w3.org/2000/svg" d="m52 22a10 10 0 0 0 -10-10h-20a10 10 0 0 0 -10 10v20a10 10 0 0 0 10 10h20a10 10 0 0 0 10-10zm4 0a14 14 0 0 0 -14-14h-20a14 14 0 0 0 -14 14v20a14 14 0 0 0 14 14h20a14 14 0 0 0 14-14z" fill="#FFFFFF" fill-rule="evenodd" data-original="#ffffff"></path></g></svg>