<svg xmlns="http://www.w3.org/2000/svg" version="1.1" xmlns:xlink="http://www.w3.org/1999/xlink" xmlns:svgjs="http://svgjs.com/svgjs" width="512" height="512" x="0" y="0" viewBox="0 0 64 64" style="enable-background:new 0 0 512 512" xml:space="preserve"><g><g xmlns="http://www.w3.org/2000/svg" fill-rule="evenodd"><path d="m48 64h-32a16.0007 16.0007 0 0 1 -16-16v-32a16.0007 16.0007 0 0 1 16-16h32a16 16 0 0 1 16 16v32a16 16 0 0 1 -16 16" fill="#0091FF" data-original="#0091ff"></path><path d="m30 18h18a9.0006 9.0006 0 0 0 .92-17.954c-.306-.017-.609-.046-.92-.046h-32a16.0007 16.0007 0 0 0 -16 16v32a30.0007 30.0007 0 0 1 30-30" fill="#00B4FF" data-original="#00b4ff"></path><path d="m48 32a16 16 0 1 0 16 16v-32a16 16 0 0 1 -16 16" fill="#006EFF" data-original="#006eff"></path><path d="m45.158 26.5478a1 1 0 0 0 -1.448-1.33c-2.328 1.746-5.031 3.7731-6.539 4.9038a1.9994 1.9994 0 0 1 -2.362.0275c-1.279-.9133-3.3-2.3566-4.589-3.2777a4.6764 4.6764 0 0 0 -2.719-.8714h-.001a2.7071 2.7071 0 0 0 -2.295 1.2718l-6.363 10.18a1 1 0 0 0 1.448 1.33c2.328-1.746 5.031-3.7731 6.539-4.9038a1.9994 1.9994 0 0 1 2.362-.0275c1.279.9133 3.3 2.3566 4.589 3.2777a4.6764 4.6764 0 0 0 2.719.8718h.001a2.7071 2.7071 0 0 0 2.295-1.2718zm-27.158 20.6469a20.6052 20.6052 0 0 1 -8-16.1947c0-11.59 9.858-21 22-21s22 9.41 22 21-9.858 21-22 21a22.9737 22.9737 0 0 1 -5.827-.7459l-5.34 2.4473a2 2 0 0 1 -2.833-1.8181z" fill="#FFFFFF" data-original="#ffffff"></path></g></g></svg>