<svg xmlns="http://www.w3.org/2000/svg" xmlns:xlink="http://www.w3.org/1999/xlink" viewBox="0 0 289.01 277.15"><defs><style>.cls-1{isolation:isolate;}.cls-2{fill:url(#linear-gradient);}.cls-3{fill:url(#linear-gradient-2);}.cls-10,.cls-4,.cls-5,.cls-7{mix-blend-mode:multiply;}.cls-4{fill:url(#linear-gradient-3);}.cls-5{fill:url(#linear-gradient-4);}.cls-6{fill:url(#linear-gradient-5);}.cls-7{fill:url(#linear-gradient-6);}.cls-8{fill:url(#linear-gradient-7);}.cls-9{fill:url(#linear-gradient-8);}.cls-10{fill:url(#linear-gradient-9);}.cls-11{fill:url(#linear-gradient-10);}</style><linearGradient id="linear-gradient" x1="87.24" y1="-15.04" x2="83.13" y2="266.08" gradientUnits="userSpaceOnUse"><stop offset="0" stop-color="#d300d4"/><stop offset="0.24" stop-color="#bc00bf"/><stop offset="1" stop-color="#74007f"/></linearGradient><linearGradient id="linear-gradient-2" x1="143.65" y1="28.31" x2="152.91" y2="178.31" gradientUnits="userSpaceOnUse"><stop offset="0" stop-color="#f22aff"/><stop offset="1" stop-color="#90278a"/></linearGradient><linearGradient id="linear-gradient-3" x1="107.52" y1="100.36" x2="92.69" y2="64.71" gradientUnits="userSpaceOnUse"><stop offset="0" stop-color="#a300bf" stop-opacity="0"/><stop offset="1" stop-color="#ea15ff"/></linearGradient><linearGradient id="linear-gradient-4" x1="171.09" y1="174.3" x2="145.61" y2="148.81" gradientUnits="userSpaceOnUse"><stop offset="0" stop-color="#9a00aa" stop-opacity="0"/><stop offset="1" stop-color="#009dea"/></linearGradient><linearGradient id="linear-gradient-5" x1="180.79" y1="158.48" x2="79.21" y2="56.9" gradientUnits="userSpaceOnUse"><stop offset="0" stop-color="#70007f"/><stop offset="1" stop-color="#aa009c"/></linearGradient><linearGradient id="linear-gradient-6" x1="114.09" y1="145.05" x2="89.72" y2="52.38" gradientUnits="userSpaceOnUse"><stop offset="0" stop-color="#aa009c" stop-opacity="0"/><stop offset="0.08" stop-color="#9c0da3" stop-opacity="0.01"/><stop offset="0.13" stop-color="#9414a6" stop-opacity="0.13"/><stop offset="1" stop-color="#009dea"/></linearGradient><linearGradient id="linear-gradient-7" x1="108.51" y1="133.69" x2="233.05" y2="291.59" gradientUnits="userSpaceOnUse"><stop offset="0" stop-color="#8b0094"/><stop offset="1" stop-color="#a900bf"/></linearGradient><linearGradient id="linear-gradient-8" x1="173.39" y1="179.03" x2="179.43" y2="276.74" gradientUnits="userSpaceOnUse"><stop offset="0" stop-color="#983293"/><stop offset="1" stop-color="#940080"/></linearGradient><linearGradient id="linear-gradient-9" x1="173.39" y1="179.03" x2="179.43" y2="276.74" gradientUnits="userSpaceOnUse"><stop offset="0" stop-color="#ffcb30" stop-opacity="0"/><stop offset="1" stop-color="#009dea"/></linearGradient><linearGradient id="linear-gradient-10" x1="110.18" y1="138.51" x2="137.64" y2="189.13" gradientUnits="userSpaceOnUse"><stop offset="0" stop-color="#be00bf"/><stop offset="1" stop-color="#fd00ff"/></linearGradient></defs><g class="cls-1"><g id="OBJECTS"><polygon class="cls-2" points="56.7 277.15 143.57 35.35 69.68 7.89 25.9 277.15 56.7 277.15"/><polygon class="cls-3" points="0 84.44 289.01 0 159.26 175.74 118.08 175.74 190.16 61.1 0 84.44"/><polygon class="cls-4" points="61.33 79.65 125.7 85.09 131.74 68.27 61.33 79.65"/><polygon class="cls-5" points="167.65 164.38 162.15 171.83 139.01 142.44 167.65 164.38"/><polygon class="cls-6" points="0 84.44 171.62 71.05 118.08 175.74 190.16 61.1 0 84.44"/><polygon class="cls-7" points="0 84.44 171.62 71.05 118.08 175.74 190.16 61.1 0 84.44"/><polygon class="cls-8" points="131.81 133.29 245.07 277.15 118.08 175.74 131.81 133.29"/><polygon class="cls-9" points="118.08 175.74 107.78 179.17 245.07 277.15 118.08 175.74"/><polygon class="cls-10" points="118.08 175.74 107.78 179.17 245.07 277.15 118.08 175.74"/><polygon class="cls-11" points="107.78 179.17 131.81 133.29 118.08 175.74 107.78 179.17"/></g></g></svg>