<svg xmlns="http://www.w3.org/2000/svg" version="1.1" xmlns:xlink="http://www.w3.org/1999/xlink" xmlns:svgjs="http://svgjs.com/svgjs" width="512" height="512" x="0" y="0" viewBox="0 0 512 512" style="enable-background:new 0 0 512 512" xml:space="preserve"><defs><linearGradient xmlns="http://www.w3.org/2000/svg" id="SVGID_1_" gradientUnits="userSpaceOnUse" x1="256" x2="256" y1="420" y2="0"><stop offset="0" stop-color="#fd3a84"></stop><stop offset="1" stop-color="#ffa68d"></stop></linearGradient><linearGradient xmlns="http://www.w3.org/2000/svg" id="SVGID_2_" gradientUnits="userSpaceOnUse" x1="256" x2="256" y1="512" y2="0"><stop offset="0" stop-color="#ffc2cc"></stop><stop offset="1" stop-color="#fff2f4"></stop></linearGradient></defs><g><linearGradient xmlns="http://www.w3.org/2000/svg" id="SVGID_1_" gradientUnits="userSpaceOnUse" x1="256" x2="256" y1="420" y2="0"><stop offset="0" stop-color="#fd3a84"></stop><stop offset="1" stop-color="#ffa68d"></stop></linearGradient><linearGradient xmlns="http://www.w3.org/2000/svg" id="SVGID_2_" gradientUnits="userSpaceOnUse" x1="256" x2="256" y1="512" y2="0"><stop offset="0" stop-color="#ffc2cc"></stop><stop offset="1" stop-color="#fff2f4"></stop></linearGradient><g xmlns="http://www.w3.org/2000/svg" id="Web_Design_2_"><g><g><path d="m378.667 88.333 28.333-28.333 30 30 45-45-30-45h-30l-15 22.5-15-22.5h-30l-15 22.5-15-22.5h-30l-30 45 34.286 34.286-34.286-4.286-272 30v270c0 24.899 20.099 45 45 45h332c8.401 0 15-6.601 15-15v-60c0-8.401 6.599-15 15-15s15 6.599 15 15v60c0 8.399 6.599 15 15 15h30c24.901 0 45-20.101 45-45v-270zm-31.667-28.333 27.857 27.857-49.524-6.191z" fill="url(&quot;#SVGID_1_&quot;)" data-original="url(#SVGID_1_)"></path></g></g><g><g><path d="m467 0h-15v45c0 8.401-6.599 15-15 15s-15-6.599-15-15v-45h-30v45c0 8.401-6.599 15-15 15s-15-6.599-15-15v-45h-30v45c0 8.401-6.599 15-15 15s-15-6.599-15-15v-45h-257c-24.901 0-45 20.099-45 45v60h512v-60c0-24.901-20.099-45-45-45zm-181 150h-180c-8.291 0-15 6.709-15 15v60c0 8.291 6.709 15 15 15h180c8.291 0 15-6.709 15-15v-60c0-8.291-6.709-15-15-15zm0 120h-60c-8.291 0-15 6.709-15 15s6.709 15 15 15h60c8.291 0 15-6.709 15-15s-6.709-15-15-15zm0 60h-60c-8.291 0-15 6.709-15 15s6.709 15 15 15h60c8.291 0 15-6.709 15-15s-6.709-15-15-15zm-120-60h-60c-8.291 0-15 6.709-15 15v60c0 8.291 6.709 15 15 15h60c8.291 0 15-6.709 15-15v-60c0-8.291-6.709-15-15-15zm196 75v152c0 8.291 6.709 15 15 15h60c8.291 0 15-6.709 15-15v-152c0-24.814-20.186-45-45-45s-45 20.186-45 45zm90-90c0-19.175-22.837-54.302-32.651-68.525-5.625-8.115-19.072-8.115-24.697 0-9.815 14.223-32.652 49.35-32.652 68.525 0 24.814 20.186 45 45 45s45-20.186 45-45z" fill="url(&quot;#SVGID_2_&quot;)" data-original="url(#SVGID_2_)"></path></g></g></g></g></svg>