<svg xmlns="http://www.w3.org/2000/svg" version="1.1" xmlns:xlink="http://www.w3.org/1999/xlink" xmlns:svgjs="http://svgjs.com/svgjs" width="512" height="512" x="0" y="0" viewBox="0 0 512 512" style="enable-background:new 0 0 512 512" xml:space="preserve"><defs><linearGradient xmlns="http://www.w3.org/2000/svg" id="SVGID_1_" gradientUnits="userSpaceOnUse" x1="256.085" x2="256.085" y1="437.289" y2="74.627"><stop offset="0" stop-color="#ffbef9"></stop><stop offset="1" stop-color="#fff1ff"></stop></linearGradient><linearGradient xmlns="http://www.w3.org/2000/svg" id="SVGID_00000010279163033394281600000006465069243886590141_" gradientUnits="userSpaceOnUse" x1="256" x2="256" y1="512" y2="0"><stop offset="0" stop-color="#a93aff"></stop><stop offset="1" stop-color="#ff81ff"></stop></linearGradient></defs><g><linearGradient xmlns="http://www.w3.org/2000/svg" id="SVGID_1_" gradientUnits="userSpaceOnUse" x1="256.085" x2="256.085" y1="437.289" y2="74.627"><stop offset="0" stop-color="#ffbef9"></stop><stop offset="1" stop-color="#fff1ff"></stop></linearGradient><linearGradient xmlns="http://www.w3.org/2000/svg" id="SVGID_00000010279163033394281600000006465069243886590141_" gradientUnits="userSpaceOnUse" x1="256" x2="256" y1="512" y2="0"><stop offset="0" stop-color="#a93aff"></stop><stop offset="1" stop-color="#ff81ff"></stop></linearGradient><g xmlns="http://www.w3.org/2000/svg"><g><g><path d="m453.729 351.922-90.381-60.234c-9.168-5.75-20.488-6.518-30.879-.967-9.551 5.346-15.469 15.41-15.469 26.279v120c0 10.869 5.918 20.933 16.084 26.616 10.538 5.269 20.628 4.105 30.645-1.538l90.41-60.293c8.173-5.845 12.861-14.883 12.861-24.785s-4.688-18.94-13.271-25.078zm-228.729-246.922h-180v60h180zm30.146 15.615 65.303-16.421c8.027-2.021 12.891-10.166 10.898-18.208-2.051-8.013-10.166-12.964-18.223-10.884l-65.302 16.421c-8.027 2.021-12.92 10.166-10.898 18.208 2.044 8.039 10.181 12.894 18.222 10.884zm-166.552 108.604c-7.324-3.706-16.436-.82-20.156 6.577l-23.203 45.659c-3.779 7.383-.82 16.421 6.562 20.171 7.352 3.726 16.395.842 20.156-6.577l23.203-45.659c3.78-7.383.821-16.421-6.562-20.171zm371.697-18.801c-7.441-3.647-16.377-.703-20.127 6.709l-22.91 45.806c-3.691 7.412-.703 16.421 6.709 20.127 7.585 3.741 16.473.579 20.127-6.709l22.91-45.806c3.691-7.412.703-16.421-6.709-20.127zm-203.379 181.143-65.332 16.333c-8.057 2.007-12.92 10.151-10.928 18.179 2.029 8.149 10.333 12.926 18.193 10.913l65.332-16.333c8.057-2.007 12.92-10.151 10.928-18.179-2.021-8.057-10.312-12.979-18.193-10.913zm-27.488-181.429c-5.889-5.815-15.381-5.757-21.211.146-5.83 5.889-5.771 15.381.117 21.211l72.752 71.858c5.908 5.819 15.399 5.752 21.211-.146 5.83-5.889 5.771-15.381-.117-21.211z" fill="url(&quot;#SVGID_1_&quot;)" data-original="url(#SVGID_1_)"></path></g></g><g><g><path d="m135 0c-74.399 0-135 60.599-135 135 0 74.399 60.601 135 135 135s135-60.601 135-135c0-74.401-60.601-135-135-135zm-60 150c-8.401 0-15-6.601-15-15 0-8.401 6.599-15 15-15s15 6.599 15 15c0 8.399-6.599 15-15 15zm60 0c-8.401 0-15-6.601-15-15 0-8.401 6.599-15 15-15s15 6.599 15 15c0 8.399-6.599 15-15 15zm60 0c-8.401 0-15-6.601-15-15 0-8.401 6.599-15 15-15s15 6.599 15 15c0 8.399-6.599 15-15 15zm182 92c-74.399 0-135 60.599-135 135 0 74.399 60.601 135 135 135s135-60.601 135-135c0-74.401-60.601-135-135-135zm68.401 147.6-90 60c-5.075 2.818-10.142 3.328-15.601.601-4.801-2.701-7.8-7.8-7.8-13.2v-120.001c0-5.4 2.999-10.501 7.8-13.2 5.1-2.701 10.8-2.4 15.601.599l90 60c4.199 3.001 6.599 7.5 6.599 12.601 0 5.1-2.4 9.6-6.599 12.6zm-23.401-192.6c0 24.814 20.186 45 45 45s45-20.186 45-45-20.186-45-45-45-45 20.186-45 45zm-332 118c0-24.814-20.186-45-45-45s-45 20.186-45 45 20.186 45 45 45 45-20.186 45-45zm285-165c41.367 0 75-33.647 75-75s-33.633-75-75-75-75 33.647-75 75 33.633 75 75 75zm-238 212c-41.367 0-75 33.647-75 75s33.633 75 75 75 75-33.647 75-75-33.633-75-75-75z" fill="url(&quot;#SVGID_00000010279163033394281600000006465069243886590141_&quot;)" data-original="url(#SVGID_00000010279163033394281600000006465069243886590141_)"></path></g></g></g></g></svg>