<svg xmlns="http://www.w3.org/2000/svg" version="1.1" xmlns:xlink="http://www.w3.org/1999/xlink" xmlns:svgjs="http://svgjs.com/svgjs" width="512" height="512" x="0" y="0" viewBox="0 0 512 512" style="enable-background:new 0 0 512 512" xml:space="preserve" class=""><defs><linearGradient xmlns="http://www.w3.org/2000/svg" id="SVGID_1_" gradientUnits="userSpaceOnUse" x1="256" x2="256" y1="512" y2="0"><stop offset="0" stop-color="#fd5900"></stop><stop offset="1" stop-color="#ffde00"></stop></linearGradient><linearGradient xmlns="http://www.w3.org/2000/svg" id="SVGID_2_" gradientUnits="userSpaceOnUse" x1="256" x2="256" y1="330.734" y2="150.334"><stop offset="0" stop-color="#ffe59a"></stop><stop offset="1" stop-color="#ffffd5"></stop></linearGradient></defs><g><linearGradient xmlns="http://www.w3.org/2000/svg" id="SVGID_1_" gradientUnits="userSpaceOnUse" x1="256" x2="256" y1="512" y2="0"><stop offset="0" stop-color="#fd5900"></stop><stop offset="1" stop-color="#ffde00"></stop></linearGradient><linearGradient xmlns="http://www.w3.org/2000/svg" id="SVGID_2_" gradientUnits="userSpaceOnUse" x1="256" x2="256" y1="330.734" y2="150.334"><stop offset="0" stop-color="#ffe59a"></stop><stop offset="1" stop-color="#ffffd5"></stop></linearGradient><g xmlns="http://www.w3.org/2000/svg"><g><g><path d="m378.415 89.824 28.585-23.758 30 24.934 45-46-30-45h-30l-15 22.5-15-22.5h-30l-15 22.5-15-22.5h-30l-30 45 34.551 36.122-50.551-6.122-256 31v361c0 24.898 20.098 45 45 45h422c24.902 0 45-20.102 45-45v-361zm-31.415-23.758 28.102 23.356-49.664-6.014z" fill="url(&quot;#SVGID_1_&quot;)" data-original="url(#SVGID_1_)"></path></g></g><g><g><path d="m467 0h-15v45c0 8.399-6.599 15-15 15s-15-6.601-15-15v-45h-30v45c0 8.399-6.599 15-15 15s-15-6.601-15-15v-45h-30v45c0 8.399-6.599 15-15 15s-15-6.601-15-15v-45h-257c-24.902 0-45 20.1-45 45v61h512v-61c0-24.9-20.098-45-45-45zm-30 361h-120c-8.291 0-15 6.709-15 15s6.709 15 15 15h120c8.291 0 15-6.709 15-15s-6.709-15-15-15zm-181-210h-179.904c-8.393 0-15.075 6.738-15.095 14.979 0 .007-.001.014-.001.021v270c0 .007.001.014.001.021.02 8.319 6.777 14.981 14.985 14.981.008 0 .016-.001.024-.001h179.979c.008 0 .016.001.024.001 8.307 0 14.965-6.775 14.985-14.981 0-.007.001-.014.001-.021v-270c0-.007-.001-.014-.001-.021-.019-8.385-6.894-14.979-14.998-14.979zm-28.027 30-61.973 92.959-61.973-92.959zm-136.973 34.541 56.973 85.459-56.973 85.459zm13.027 205.459 61.973-92.959 61.973 92.959zm136.973-34.541-56.973-85.459 56.973-85.459zm196-235.459h-120c-8.396 0-15 6.908-15 15v150c0 8.116 6.623 15 14.99 15h.009 120 .009c8.276 0 14.924-6.751 14.985-14.895 0-.036.005-.07.005-.105v-150c.002-8.247-6.745-15-14.998-15zm-31.209 30-28.791 35.988-28.791-35.988zm-73.791 27.762 25.791 32.238-25.791 32.238zm16.209 92.238 28.791-35.988 28.791 35.988zm73.791-27.762-25.791-32.238 25.791-32.238zm15 147.762h-120c-8.291 0-15 6.709-15 15s6.709 15 15 15h120c8.291 0 15-6.709 15-15s-6.709-15-15-15z" fill="url(&quot;#SVGID_2_&quot;)" data-original="url(#SVGID_2_)"></path></g></g></g></g></svg>