<svg xmlns="http://www.w3.org/2000/svg" version="1.1" xmlns:xlink="http://www.w3.org/1999/xlink" xmlns:svgjs="http://svgjs.com/svgjs" width="512" height="512" x="0" y="0" viewBox="0 0 512 512" style="enable-background:new 0 0 512 512" xml:space="preserve"><defs><linearGradient xmlns="http://www.w3.org/2000/svg" id="SVGID_1_" gradientUnits="userSpaceOnUse" x1="256" x2="256" y1="482" y2="30"><stop offset="0" stop-color="#c3ffe8"></stop><stop offset=".9973" stop-color="#f0fff4"></stop></linearGradient><linearGradient xmlns="http://www.w3.org/2000/svg" id="SVGID_2_" gradientUnits="userSpaceOnUse" x1="256" x2="256" y1="512" y2="0"><stop offset="0" stop-color="#00b59c"></stop><stop offset="1" stop-color="#9cffac"></stop></linearGradient></defs><g><linearGradient xmlns="http://www.w3.org/2000/svg" id="SVGID_1_" gradientUnits="userSpaceOnUse" x1="256" x2="256" y1="482" y2="30"><stop offset="0" stop-color="#c3ffe8"></stop><stop offset=".9973" stop-color="#f0fff4"></stop></linearGradient><linearGradient xmlns="http://www.w3.org/2000/svg" id="SVGID_2_" gradientUnits="userSpaceOnUse" x1="256" x2="256" y1="512" y2="0"><stop offset="0" stop-color="#00b59c"></stop><stop offset="1" stop-color="#9cffac"></stop></linearGradient><g xmlns="http://www.w3.org/2000/svg" id="Shape_2_"><g><g><path d="m467 361c-8.291 0-15 6.709-15 15v61c0 8.291 6.709 15 15 15s15-6.709 15-15v-61c0-8.291-6.709-15-15-15zm0-90c-8.291 0-15 6.709-15 15v30c0 8.291 6.709 15 15 15s15-6.709 15-15v-30c0-8.291-6.709-15-15-15zm0-90c-8.291 0-15 6.709-15 15v30c0 8.291 6.709 15 15 15s15-6.709 15-15v-30c0-8.291-6.709-15-15-15zm0-121c-8.291 0-15 6.709-15 15v61c0 8.291 6.709 15 15 15s15-6.709 15-15v-61c0-8.291-6.709-15-15-15zm-407 316c0-8.291-6.709-15-15-15s-15 6.709-15 15v61c0 8.291 6.709 15 15 15s15-6.709 15-15zm-15-45c8.291 0 15-6.709 15-15v-30c0-8.291-6.709-15-15-15s-15 6.709-15 15v30c0 8.291 6.709 15 15 15zm0-90c8.291 0 15-6.709 15-15v-30c0-8.291-6.709-15-15-15s-15 6.709-15 15v30c0 8.291 6.709 15 15 15zm0-90c8.291 0 15-6.709 15-15v-61c0-8.291-6.709-15-15-15s-15 6.709-15 15v61c0 8.291 6.709 15 15 15zm331-91h61c8.291 0 15-6.709 15-15s-6.709-15-15-15h-61c-8.291 0-15 6.709-15 15s6.709 15 15 15zm-60-30h-30c-8.291 0-15 6.709-15 15s6.709 15 15 15h30c8.291 0 15-6.709 15-15s-6.709-15-15-15zm-120 30h30c8.291 0 15-6.709 15-15s-6.709-15-15-15h-30c-8.291 0-15 6.709-15 15s6.709 15 15 15zm-121 0h61c8.291 0 15-6.709 15-15s-6.709-15-15-15h-61c-8.291 0-15 6.709-15 15s6.709 15 15 15zm362 392h-61c-8.291 0-15 6.709-15 15s6.709 15 15 15h61c8.291 0 15-6.709 15-15s-6.709-15-15-15zm-121 0h-30c-8.291 0-15 6.709-15 15s6.709 15 15 15h30c8.291 0 15-6.709 15-15s-6.709-15-15-15zm-90 0h-30c-8.291 0-15 6.709-15 15s6.709 15 15 15h30c8.291 0 15-6.709 15-15s-6.709-15-15-15zm-90 0h-61c-8.291 0-15 6.709-15 15s6.709 15 15 15h61c8.291 0 15-6.709 15-15s-6.709-15-15-15zm61.201-241h-91.201c-8.291 0-15 6.709-15 15v180c0 8.291 6.709 15 15 15h180c8.291 0 15-6.709 15-15v-91.201c0-7.456-5.479-13.784-12.861-14.854-39.17-5.625-70.459-36.899-76.084-76.084-1.07-7.382-7.398-12.861-14.854-12.861z" fill="url(&quot;#SVGID_1_&quot;)" data-original="url(#SVGID_1_)"></path></g></g><g><g><path d="m75 0h-60c-8.291 0-15 6.709-15 15v60c0 8.291 6.709 15 15 15h60c8.291 0 15-6.709 15-15v-60c0-8.291-6.709-15-15-15zm422 0h-60c-8.291 0-15 6.709-15 15v60c0 8.291 6.709 15 15 15h60c8.291 0 15-6.709 15-15v-60c0-8.291-6.709-15-15-15zm0 422h-60c-8.291 0-15 6.709-15 15v60c0 8.291 6.709 15 15 15h60c8.291 0 15-6.709 15-15v-60c0-8.291-6.709-15-15-15zm-422 0h-60c-8.291 0-15 6.709-15 15v60c0 8.291 6.709 15 15 15h60c8.291 0 15-6.709 15-15v-60c0-8.291-6.709-15-15-15zm226-331c-66.23 0-120 53.921-120 120 0 65.101 53.393 120 120 120 67.278 0 120-55.062 120-120 0-66.221-53.903-120-120-120z" fill="url(&quot;#SVGID_2_&quot;)" data-original="url(#SVGID_2_)"></path></g></g></g></g></svg>