<svg xmlns="http://www.w3.org/2000/svg" version="1.1" xmlns:xlink="http://www.w3.org/1999/xlink" xmlns:svgjs="http://svgjs.com/svgjs" width="512" height="512" x="0" y="0" viewBox="0 0 512 512" style="enable-background:new 0 0 512 512" xml:space="preserve"><defs><linearGradient xmlns="http://www.w3.org/2000/svg" id="SVGID_1_" gradientUnits="userSpaceOnUse" x1="256" x2="256" y1="466" y2="46"><stop offset="0" stop-color="#5558ff"></stop><stop offset="1" stop-color="#00c0ff"></stop></linearGradient><linearGradient xmlns="http://www.w3.org/2000/svg" id="SVGID_2_" gradientUnits="userSpaceOnUse" x1="256" x2="256" y1="481" y2="31"><stop offset="0" stop-color="#addcff"></stop><stop offset=".5028" stop-color="#eaf6ff"></stop><stop offset="1" stop-color="#eaf6ff"></stop></linearGradient></defs><g><linearGradient xmlns="http://www.w3.org/2000/svg" id="SVGID_1_" gradientUnits="userSpaceOnUse" x1="256" x2="256" y1="466" y2="46"><stop offset="0" stop-color="#5558ff"></stop><stop offset="1" stop-color="#00c0ff"></stop></linearGradient><linearGradient xmlns="http://www.w3.org/2000/svg" id="SVGID_2_" gradientUnits="userSpaceOnUse" x1="256" x2="256" y1="481" y2="31"><stop offset="0" stop-color="#addcff"></stop><stop offset=".5028" stop-color="#eaf6ff"></stop><stop offset="1" stop-color="#eaf6ff"></stop></linearGradient><g xmlns="http://www.w3.org/2000/svg"><g><g><path d="m15 46h482v420h-482z" fill="url(&quot;#SVGID_1_&quot;)" data-original="url(#SVGID_1_)"></path></g></g><g><g><path d="m497 31h-482c-8.291 0-15 6.709-15 15v420c0 8.291 6.709 15 15 15h482c8.291 0 15-6.709 15-15v-420c0-8.291-6.709-15-15-15zm-226 30h90v30h-90zm-120 0h90v30h-90zm-121 0h91v30h-91zm91 390h-91v-30h91zm120 0h-90v-30h90zm120 0h-90v-30h90zm121 0h-91v-30h91zm0-60h-452v-270h452zm0-300h-91v-30h91zm-278.881 222.759c4.426 2.752 9.975 2.967 14.59.659l90-45c5.068-2.549 8.291-7.734 8.291-13.418s-3.223-10.869-8.291-13.418l-90-45c-4.658-2.329-10.195-2.065-14.59.659-4.424 2.739-7.119 7.559-7.119 12.759v90c0 5.2 2.695 10.02 7.119 12.759z" fill="url(&quot;#SVGID_2_&quot;)" data-original="url(#SVGID_2_)"></path></g></g></g></g></svg>