<svg xmlns="http://www.w3.org/2000/svg" version="1.1" xmlns:xlink="http://www.w3.org/1999/xlink" xmlns:svgjs="http://svgjs.com/svgjs" width="512" height="512" x="0" y="0" viewBox="0 0 512 512" style="enable-background:new 0 0 512 512" xml:space="preserve"><defs><linearGradient xmlns="http://www.w3.org/2000/svg" id="SVGID_1_" gradientUnits="userSpaceOnUse" x1="241" x2="241" y1="482" y2="30"><stop offset="0" stop-color="#a93aff"></stop><stop offset="1" stop-color="#ff81ff"></stop></linearGradient><linearGradient xmlns="http://www.w3.org/2000/svg" id="SVGID_2_" gradientUnits="userSpaceOnUse" x1="294" x2="294" y1="301.177" y2="0"><stop offset="0" stop-color="#ffbef9"></stop><stop offset="1" stop-color="#fff1ff"></stop></linearGradient></defs><g><linearGradient xmlns="http://www.w3.org/2000/svg" id="SVGID_1_" gradientUnits="userSpaceOnUse" x1="241" x2="241" y1="482" y2="30"><stop offset="0" stop-color="#a93aff"></stop><stop offset="1" stop-color="#ff81ff"></stop></linearGradient><linearGradient xmlns="http://www.w3.org/2000/svg" id="SVGID_2_" gradientUnits="userSpaceOnUse" x1="294" x2="294" y1="301.177" y2="0"><stop offset="0" stop-color="#ffbef9"></stop><stop offset="1" stop-color="#fff1ff"></stop></linearGradient><g xmlns="http://www.w3.org/2000/svg"><g><g><path d="m316 422h-15l-42.327-30-47.673 30h-90v-15c0-8.401-6.599-15-15-15s-15 6.599-15 15v60c0 8.399 6.599 15 15 15s15-6.601 15-15v-15h90l46.782 30 43.218-30h15c8.401 0 15-6.601 15-15 0-8.401-6.599-15-15-15zm151-212h-181c-8.401 0-15-6.601-15-15v-150c0-8.401-6.599-15-15-15h-211c-24.902 0-45 20.1-45 45v240c0 24.898 20.098 45 45 45h166l44.555 32 45.445-32h136c24.902 0 45-20.102 45-45v-90c0-8.401-6.599-15-15-15zm-91-15c41.367 0 75-33.647 75-75s-33.633-75-75-75-75 33.647-75 75 33.633 75 75 75z" fill="url(&quot;#SVGID_1_&quot;)" data-original="url(#SVGID_1_)"></path></g></g><g><g><path d="m301 360h-90v62h90zm45 122h-45v-30h-90v30h-45c-8.401 0-15 6.599-15 15 0 8.399 6.599 15 15 15h180c8.401 0 15-6.601 15-15 0-8.401-6.599-15-15-15zm-150-317c0-5.684-3.223-10.869-8.291-13.418l-90-45c-4.658-2.344-10.195-2.08-14.59.659-4.424 2.739-7.119 7.559-7.119 12.759v90c0 5.2 2.695 10.02 7.119 12.759 4.438 2.76 9.988 2.96 14.59.659l90-45c5.068-2.549 8.291-7.734 8.291-13.418zm271-165h-181c-24.902 0-45 20.1-45 45v150c0 24.898 20.098 45 45 45h181c24.902 0 45-20.102 45-45v-150c0-24.9-20.098-45-45-45zm-91 180c-32.999 0-60-27.001-60-60 0-33.001 27.001-60 60-60s60 26.999 60 60c0 32.999-27.001 60-60 60zm-75 105c0-8.284-6.716-15-15-15s-15 6.716-15 15 6.716 15 15 15 15-6.716 15-15zm45-15c-8.284 0-15 6.716-15 15s6.716 15 15 15 15-6.716 15-15-6.716-15-15-15zm60 0c-8.284 0-15 6.716-15 15s6.716 15 15 15 15-6.716 15-15-6.716-15-15-15z" fill="url(&quot;#SVGID_2_&quot;)" data-original="url(#SVGID_2_)"></path></g></g></g></g></svg>